<?xml version="1.0" encoding="UTF-8"?>
<!DOCTYPE svg PUBLIC "-//W3C//DTD SVG 1.1//EN" "http://www.w3.org/Graphics/SVG/1.1/DTD/svg11.dtd">
<!-- Creator: CorelDRAW -->
<svg xmlns="http://www.w3.org/2000/svg" xml:space="preserve" width="512px" height="512px" version="1.1" style="shape-rendering:geometricPrecision; text-rendering:geometricPrecision; image-rendering:optimizeQuality; fill-rule:evenodd; clip-rule:evenodd"
viewBox="0 0 55.51 55.51"
 xmlns:xlink="http://www.w3.org/1999/xlink"
 xmlns:xodm="http://www.corel.com/coreldraw/odm/2003">
 <defs>
  <style type="text/css">
   <![CDATA[
    .fil0 {fill:black}
    .fil2 {fill:url(#id0);fill-rule:nonzero}
    .fil1 {fill:url(#id1);fill-rule:nonzero}
   ]]>
  </style>
  <linearGradient id="id0" gradientUnits="objectBoundingBox" x1="7.94782%" y1="52.755%" x2="84.7412%" y2="52.7483%">
   <stop offset="0" style="stop-opacity:1; stop-color:#00CCFF"/>
   <stop offset="1" style="stop-opacity:1; stop-color:#9900CC"/>
  </linearGradient>
  <linearGradient id="id1" gradientUnits="objectBoundingBox" xlink:href="#id0" x1="7.94235%" y1="52.7562%" x2="84.6819%" y2="52.7475%">
  </linearGradient>
 </defs>
 <g id="Camada_x0020_1">
  <metadata id="CorelCorpID_0Corel-Layer"/>
  <g id="_2673542633424">
   <rect class="fil0" width="55.51" height="55.51" rx="27.76" ry="27.76"/>
   <path class="fil1" d="M14.09 23.44l0 1.15c0,0.18 0.07,0.34 0.19,0.46 0.13,0.13 0.29,0.2 0.47,0.2l7.4 0c0.18,0 0.34,0.06 0.46,0.19 0.13,0.12 0.2,0.28 0.2,0.46l0 3.77c0,0.18 -0.07,0.34 -0.2,0.46 -0.12,0.13 -0.28,0.19 -0.46,0.19l-7.4 0c-0.18,0 -0.34,0.07 -0.47,0.2 -0.12,0.12 -0.19,0.28 -0.19,0.46l0 1.04c0,0.18 0.07,0.33 0.19,0.46 0.13,0.13 0.29,0.19 0.47,0.19l8.49 0c0.18,0 0.34,0.07 0.47,0.19 0.12,0.13 0.19,0.29 0.19,0.47l0 3.77c0,0.18 -0.07,0.33 -0.19,0.46 -0.13,0.13 -0.29,0.19 -0.47,0.19l-13.9 0c-0.18,0 -0.33,-0.06 -0.46,-0.19 -0.13,-0.13 -0.19,-0.28 -0.19,-0.46l0 -18.68c0,-0.18 0.06,-0.34 0.19,-0.47 0.13,-0.12 0.28,-0.19 0.46,-0.19l13.9 0c0.18,0 0.34,0.07 0.47,0.19 0.12,0.13 0.19,0.29 0.19,0.47l0 3.71c0,0.18 -0.07,0.34 -0.19,0.47 -0.13,0.12 -0.29,0.19 -0.47,0.19l-8.49 0c-0.18,0 -0.34,0.06 -0.47,0.19 -0.12,0.13 -0.19,0.28 -0.19,0.46z"/>
   <path id="_1" class="fil1" d="M33.13 18.39c0.07,-0.16 0.19,-0.3 0.37,-0.42 0.17,-0.12 0.36,-0.18 0.56,-0.18l3.82 0c0.18,0 0.36,0.06 0.53,0.18 0.18,0.12 0.3,0.26 0.37,0.42l7.98 18.57c0.07,0.16 0.05,0.34 -0.05,0.52 -0.1,0.18 -0.29,0.27 -0.58,0.27l-4.67 0c-0.2,0 -0.39,-0.06 -0.56,-0.17 -0.18,-0.12 -0.31,-0.26 -0.4,-0.43l-0.74 -1.64c-0.09,-0.16 -0.22,-0.3 -0.39,-0.42 -0.17,-0.12 -0.35,-0.18 -0.53,-0.18l-5.77 0c-0.2,0 -0.38,0.06 -0.56,0.18 -0.17,0.12 -0.29,0.26 -0.37,0.42l-0.76 1.64c-0.07,0.17 -0.2,0.31 -0.37,0.43 -0.17,0.11 -0.35,0.17 -0.53,0.17l-4.7 0c-0.09,0 -0.18,-0.02 -0.28,-0.05 -0.11,-0.04 -0.19,-0.09 -0.25,-0.17 -0.06,-0.07 -0.11,-0.16 -0.12,-0.27 -0.02,-0.11 0.01,-0.24 0.08,-0.38l7.92 -18.49zm1.61 11.88l2.43 0c0.18,0 0.31,-0.06 0.4,-0.18 0.08,-0.12 0.07,-0.26 -0.02,-0.42 -0.18,-0.46 -0.4,-0.99 -0.65,-1.6 -0.26,-0.61 -0.5,-1.18 -0.71,-1.71 -0.08,-0.16 -0.16,-0.24 -0.25,-0.24 -0.09,0 -0.17,0.08 -0.25,0.24l-1.36 3.31c-0.07,0.16 -0.07,0.3 0,0.42 0.07,0.12 0.21,0.18 0.41,0.18z"/>
   <path class="fil2" d="M24.07 42.25l0 1.84c0,0.08 -0.03,0.15 -0.08,0.22 -0.05,0.08 -0.11,0.13 -0.18,0.16l-1.97 0.86c-0.08,0.03 -0.12,0.07 -0.12,0.11 0,0.04 0.04,0.07 0.12,0.1l1.96 0.85c0.08,0.04 0.14,0.09 0.19,0.16 0.05,0.08 0.08,0.15 0.08,0.23l0 1.85c0,0.07 -0.03,0.13 -0.08,0.16 -0.05,0.03 -0.11,0.03 -0.18,0l-4.92 -2.32c-0.07,-0.04 -0.13,-0.09 -0.17,-0.17 -0.05,-0.07 -0.07,-0.14 -0.07,-0.22l0 -1.29c0,-0.08 0.02,-0.15 0.07,-0.23 0.04,-0.08 0.1,-0.13 0.17,-0.16l4.92 -2.31c0.07,-0.04 0.13,-0.04 0.18,0 0.05,0.03 0.08,0.09 0.08,0.16z"/>
   <path id="_1_0" class="fil2" d="M24.39 50.75l4.74 -10.34c0.04,-0.07 0.09,-0.12 0.16,-0.17 0.08,-0.04 0.15,-0.07 0.23,-0.07l1.69 0c0.07,0 0.13,0.03 0.16,0.07 0.04,0.05 0.04,0.1 0,0.17l-4.74 10.34c-0.03,0.07 -0.09,0.13 -0.16,0.18 -0.08,0.05 -0.16,0.08 -0.23,0.08l-1.69 0c-0.08,0 -0.13,-0.03 -0.16,-0.08 -0.03,-0.05 -0.03,-0.11 0,-0.18z"/>
   <path id="_2" class="fil2" d="M36.86 44.79l0 1.29c0,0.08 -0.02,0.15 -0.07,0.22 -0.05,0.08 -0.11,0.13 -0.18,0.17l-4.91 2.32c-0.07,0.03 -0.13,0.03 -0.18,0 -0.05,-0.03 -0.07,-0.09 -0.07,-0.16l0 -1.85c0,-0.08 0.02,-0.15 0.07,-0.23 0.05,-0.07 0.11,-0.12 0.18,-0.16l1.96 -0.85c0.07,-0.03 0.11,-0.06 0.11,-0.1 0,-0.04 -0.04,-0.08 -0.11,-0.11l-1.96 -0.86c-0.07,-0.03 -0.13,-0.08 -0.18,-0.16 -0.05,-0.07 -0.07,-0.14 -0.07,-0.22l0 -1.84c0,-0.07 0.02,-0.13 0.07,-0.16 0.05,-0.04 0.11,-0.04 0.18,0l4.91 2.31c0.07,0.03 0.13,0.08 0.18,0.16 0.05,0.08 0.07,0.15 0.07,0.23z"/>
  </g>
 </g>
</svg>
